<svg width="377" height="377" viewBox="0 0 377 377" fill="none" xmlns="http://www.w3.org/2000/svg">
<rect width="377" height="377" rx="50" fill="#EB5E28"/>
<path d="M123.041 237.384V237.227C123.041 236.693 123.118 236.199 123.273 235.743C123.428 235.283 123.652 234.884 123.943 234.547C124.235 234.205 124.588 233.941 125.003 233.754C125.418 233.562 125.882 233.467 126.397 233.467C126.917 233.467 127.384 233.562 127.799 233.754C128.218 233.941 128.574 234.205 128.865 234.547C129.161 234.884 129.387 235.283 129.542 235.743C129.697 236.199 129.774 236.693 129.774 237.227V237.384C129.774 237.917 129.697 238.411 129.542 238.867C129.387 239.323 129.161 239.722 128.865 240.063C128.574 240.401 128.22 240.665 127.806 240.856C127.396 241.043 126.931 241.137 126.411 241.137C125.892 241.137 125.424 241.043 125.01 240.856C124.595 240.665 124.24 240.401 123.943 240.063C123.652 239.722 123.428 239.323 123.273 238.867C123.118 238.411 123.041 237.917 123.041 237.384ZM124.306 237.227V237.384C124.306 237.753 124.349 238.102 124.436 238.43C124.522 238.753 124.652 239.04 124.825 239.291C125.003 239.542 125.224 239.74 125.488 239.886C125.753 240.027 126.06 240.098 126.411 240.098C126.757 240.098 127.061 240.027 127.32 239.886C127.585 239.74 127.803 239.542 127.977 239.291C128.15 239.04 128.28 238.753 128.366 238.43C128.457 238.102 128.503 237.753 128.503 237.384V237.227C128.503 236.862 128.457 236.518 128.366 236.194C128.28 235.866 128.147 235.577 127.97 235.326C127.797 235.071 127.578 234.87 127.313 234.725C127.054 234.579 126.748 234.506 126.397 234.506C126.051 234.506 125.746 234.579 125.481 234.725C125.222 234.87 125.003 235.071 124.825 235.326C124.652 235.577 124.522 235.866 124.436 236.194C124.349 236.518 124.306 236.862 124.306 237.227ZM137.625 235.183V241H136.36V233.604H137.557L137.625 235.183ZM137.324 237.021L136.798 237.001C136.802 236.495 136.878 236.028 137.023 235.6C137.169 235.167 137.374 234.791 137.639 234.472C137.903 234.153 138.217 233.907 138.582 233.733C138.951 233.556 139.359 233.467 139.806 233.467C140.17 233.467 140.498 233.517 140.79 233.617C141.082 233.713 141.33 233.868 141.535 234.082C141.745 234.296 141.904 234.574 142.014 234.916C142.123 235.253 142.178 235.666 142.178 236.153V241H140.906V236.14C140.906 235.752 140.849 235.442 140.735 235.21C140.621 234.973 140.455 234.802 140.236 234.697C140.018 234.588 139.749 234.533 139.43 234.533C139.115 234.533 138.828 234.599 138.568 234.731C138.313 234.864 138.092 235.046 137.905 235.278C137.723 235.511 137.579 235.777 137.475 236.078C137.374 236.374 137.324 236.689 137.324 237.021ZM150.473 230.5V241H149.201V230.5H150.473ZM158.877 233.604V241H157.605V233.604H158.877ZM157.51 231.642C157.51 231.437 157.571 231.263 157.694 231.122C157.822 230.981 158.009 230.91 158.255 230.91C158.496 230.91 158.681 230.981 158.809 231.122C158.941 231.263 159.007 231.437 159.007 231.642C159.007 231.838 158.941 232.006 158.809 232.147C158.681 232.284 158.496 232.353 158.255 232.353C158.009 232.353 157.822 232.284 157.694 232.147C157.571 232.006 157.51 231.838 157.51 231.642ZM167.172 235.183V241H165.907V233.604H167.104L167.172 235.183ZM166.871 237.021L166.345 237.001C166.349 236.495 166.424 236.028 166.57 235.6C166.716 235.167 166.921 234.791 167.186 234.472C167.45 234.153 167.764 233.907 168.129 233.733C168.498 233.556 168.906 233.467 169.353 233.467C169.717 233.467 170.045 233.517 170.337 233.617C170.629 233.713 170.877 233.868 171.082 234.082C171.292 234.296 171.451 234.574 171.561 234.916C171.67 235.253 171.725 235.666 171.725 236.153V241H170.453V236.14C170.453 235.752 170.396 235.442 170.282 235.21C170.168 234.973 170.002 234.802 169.783 234.697C169.564 234.588 169.296 234.533 168.977 234.533C168.662 234.533 168.375 234.599 168.115 234.731C167.86 234.864 167.639 235.046 167.452 235.278C167.27 235.511 167.126 235.777 167.021 236.078C166.921 236.374 166.871 236.689 166.871 237.021ZM181.715 241.137C181.2 241.137 180.733 241.05 180.313 240.877C179.899 240.699 179.541 240.451 179.24 240.132C178.944 239.813 178.716 239.435 178.557 238.997C178.397 238.56 178.317 238.081 178.317 237.562V237.274C178.317 236.673 178.406 236.137 178.584 235.668C178.762 235.194 179.003 234.793 179.309 234.465C179.614 234.137 179.96 233.888 180.348 233.72C180.735 233.551 181.136 233.467 181.551 233.467C182.079 233.467 182.535 233.558 182.918 233.74C183.305 233.923 183.622 234.178 183.868 234.506C184.114 234.829 184.297 235.212 184.415 235.654C184.534 236.092 184.593 236.57 184.593 237.09V237.657H179.069V236.625H183.328V236.529C183.31 236.201 183.242 235.882 183.123 235.572C183.009 235.262 182.827 235.007 182.576 234.807C182.326 234.606 181.984 234.506 181.551 234.506C181.264 234.506 180.999 234.567 180.758 234.69C180.516 234.809 180.309 234.987 180.136 235.224C179.963 235.461 179.828 235.75 179.732 236.092C179.637 236.434 179.589 236.828 179.589 237.274V237.562C179.589 237.912 179.637 238.243 179.732 238.553C179.833 238.858 179.976 239.127 180.163 239.359C180.354 239.592 180.585 239.774 180.854 239.906C181.127 240.038 181.437 240.104 181.783 240.104C182.23 240.104 182.608 240.013 182.918 239.831C183.228 239.649 183.499 239.405 183.731 239.1L184.497 239.708C184.338 239.95 184.135 240.18 183.889 240.398C183.643 240.617 183.34 240.795 182.979 240.932C182.624 241.068 182.202 241.137 181.715 241.137ZM204.334 233.604H205.482V240.843C205.482 241.494 205.35 242.05 205.086 242.511C204.822 242.971 204.452 243.32 203.979 243.557C203.509 243.798 202.967 243.919 202.352 243.919C202.096 243.919 201.796 243.878 201.449 243.796C201.107 243.718 200.77 243.584 200.438 243.393C200.109 243.206 199.834 242.953 199.61 242.634L200.273 241.882C200.583 242.256 200.907 242.515 201.244 242.661C201.586 242.807 201.923 242.88 202.256 242.88C202.657 242.88 203.003 242.805 203.295 242.654C203.587 242.504 203.812 242.281 203.972 241.984C204.136 241.693 204.218 241.333 204.218 240.904V235.23L204.334 233.604ZM199.241 237.384V237.24C199.241 236.675 199.307 236.162 199.439 235.702C199.576 235.237 199.77 234.839 200.021 234.506C200.276 234.173 200.583 233.918 200.943 233.74C201.303 233.558 201.709 233.467 202.16 233.467C202.625 233.467 203.031 233.549 203.377 233.713C203.728 233.872 204.024 234.107 204.266 234.417C204.512 234.722 204.705 235.091 204.847 235.524C204.988 235.957 205.086 236.447 205.141 236.994V237.623C205.09 238.165 204.993 238.653 204.847 239.086C204.705 239.519 204.512 239.888 204.266 240.193C204.024 240.499 203.728 240.733 203.377 240.897C203.026 241.057 202.616 241.137 202.146 241.137C201.704 241.137 201.303 241.043 200.943 240.856C200.588 240.67 200.283 240.408 200.027 240.07C199.772 239.733 199.576 239.337 199.439 238.881C199.307 238.421 199.241 237.922 199.241 237.384ZM200.506 237.24V237.384C200.506 237.753 200.542 238.099 200.615 238.423C200.693 238.746 200.809 239.031 200.964 239.277C201.123 239.523 201.326 239.717 201.572 239.858C201.818 239.995 202.112 240.063 202.454 240.063C202.873 240.063 203.22 239.975 203.493 239.797C203.767 239.619 203.983 239.384 204.143 239.093C204.307 238.801 204.434 238.484 204.525 238.143V236.495C204.475 236.244 204.398 236.003 204.293 235.771C204.193 235.534 204.061 235.324 203.896 235.142C203.737 234.955 203.539 234.807 203.302 234.697C203.065 234.588 202.787 234.533 202.468 234.533C202.121 234.533 201.823 234.606 201.572 234.752C201.326 234.893 201.123 235.089 200.964 235.34C200.809 235.586 200.693 235.873 200.615 236.201C200.542 236.525 200.506 236.871 200.506 237.24ZM213.668 234.766V241H212.403V233.604H213.634L213.668 234.766ZM215.979 233.562L215.972 234.738C215.867 234.715 215.767 234.702 215.671 234.697C215.58 234.688 215.475 234.684 215.356 234.684C215.065 234.684 214.807 234.729 214.584 234.82C214.361 234.911 214.172 235.039 214.017 235.203C213.862 235.367 213.739 235.563 213.647 235.791C213.561 236.014 213.504 236.26 213.477 236.529L213.121 236.734C213.121 236.288 213.164 235.868 213.251 235.477C213.342 235.085 213.481 234.738 213.668 234.438C213.855 234.132 214.092 233.895 214.379 233.727C214.671 233.553 215.017 233.467 215.418 233.467C215.509 233.467 215.614 233.478 215.732 233.501C215.851 233.519 215.933 233.54 215.979 233.562ZM221.676 237.384V237.227C221.676 236.693 221.753 236.199 221.908 235.743C222.063 235.283 222.286 234.884 222.578 234.547C222.87 234.205 223.223 233.941 223.638 233.754C224.052 233.562 224.517 233.467 225.032 233.467C225.552 233.467 226.019 233.562 226.434 233.754C226.853 233.941 227.208 234.205 227.5 234.547C227.796 234.884 228.022 235.283 228.177 235.743C228.332 236.199 228.409 236.693 228.409 237.227V237.384C228.409 237.917 228.332 238.411 228.177 238.867C228.022 239.323 227.796 239.722 227.5 240.063C227.208 240.401 226.855 240.665 226.44 240.856C226.03 241.043 225.565 241.137 225.046 241.137C224.526 241.137 224.059 241.043 223.645 240.856C223.23 240.665 222.874 240.401 222.578 240.063C222.286 239.722 222.063 239.323 221.908 238.867C221.753 238.411 221.676 237.917 221.676 237.384ZM222.94 237.227V237.384C222.94 237.753 222.984 238.102 223.07 238.43C223.157 238.753 223.287 239.04 223.46 239.291C223.638 239.542 223.859 239.74 224.123 239.886C224.387 240.027 224.695 240.098 225.046 240.098C225.392 240.098 225.695 240.027 225.955 239.886C226.219 239.74 226.438 239.542 226.611 239.291C226.785 239.04 226.914 238.753 227.001 238.43C227.092 238.102 227.138 237.753 227.138 237.384V237.227C227.138 236.862 227.092 236.518 227.001 236.194C226.914 235.866 226.782 235.577 226.604 235.326C226.431 235.071 226.213 234.87 225.948 234.725C225.688 234.579 225.383 234.506 225.032 234.506C224.686 234.506 224.381 234.579 224.116 234.725C223.856 234.87 223.638 235.071 223.46 235.326C223.287 235.577 223.157 235.866 223.07 236.194C222.984 236.518 222.94 236.862 222.94 237.227ZM237.955 240.098C238.256 240.098 238.534 240.036 238.789 239.913C239.044 239.79 239.254 239.621 239.418 239.407C239.582 239.188 239.675 238.94 239.698 238.662H240.901C240.879 239.1 240.73 239.507 240.457 239.886C240.188 240.259 239.835 240.562 239.397 240.795C238.96 241.023 238.479 241.137 237.955 241.137C237.399 241.137 236.914 241.039 236.499 240.843C236.089 240.647 235.747 240.378 235.474 240.036C235.205 239.694 235.002 239.302 234.865 238.86C234.733 238.414 234.667 237.942 234.667 237.445V237.158C234.667 236.661 234.733 236.192 234.865 235.75C235.002 235.303 235.205 234.909 235.474 234.567C235.747 234.226 236.089 233.957 236.499 233.761C236.914 233.565 237.399 233.467 237.955 233.467C238.534 233.467 239.04 233.585 239.473 233.822C239.906 234.055 240.245 234.374 240.491 234.779C240.742 235.18 240.879 235.636 240.901 236.146H239.698C239.675 235.841 239.589 235.565 239.438 235.319C239.293 235.073 239.092 234.877 238.837 234.731C238.586 234.581 238.292 234.506 237.955 234.506C237.568 234.506 237.242 234.583 236.978 234.738C236.718 234.889 236.51 235.094 236.355 235.354C236.205 235.609 236.096 235.894 236.027 236.208C235.964 236.518 235.932 236.835 235.932 237.158V237.445C235.932 237.769 235.964 238.088 236.027 238.402C236.091 238.717 236.198 239.002 236.349 239.257C236.504 239.512 236.711 239.717 236.971 239.872C237.235 240.022 237.563 240.098 237.955 240.098ZM250.393 241.137C249.878 241.137 249.41 241.05 248.991 240.877C248.576 240.699 248.219 240.451 247.918 240.132C247.622 239.813 247.394 239.435 247.234 238.997C247.075 238.56 246.995 238.081 246.995 237.562V237.274C246.995 236.673 247.084 236.137 247.262 235.668C247.439 235.194 247.681 234.793 247.986 234.465C248.292 234.137 248.638 233.888 249.025 233.72C249.413 233.551 249.814 233.467 250.229 233.467C250.757 233.467 251.213 233.558 251.596 233.74C251.983 233.923 252.3 234.178 252.546 234.506C252.792 234.829 252.974 235.212 253.093 235.654C253.211 236.092 253.271 236.57 253.271 237.09V237.657H247.747V236.625H252.006V236.529C251.988 236.201 251.919 235.882 251.801 235.572C251.687 235.262 251.505 235.007 251.254 234.807C251.003 234.606 250.661 234.506 250.229 234.506C249.941 234.506 249.677 234.567 249.436 234.69C249.194 234.809 248.987 234.987 248.813 235.224C248.64 235.461 248.506 235.75 248.41 236.092C248.314 236.434 248.267 236.828 248.267 237.274V237.562C248.267 237.912 248.314 238.243 248.41 238.553C248.51 238.858 248.654 239.127 248.841 239.359C249.032 239.592 249.262 239.774 249.531 239.906C249.805 240.038 250.115 240.104 250.461 240.104C250.908 240.104 251.286 240.013 251.596 239.831C251.906 239.649 252.177 239.405 252.409 239.1L253.175 239.708C253.015 239.95 252.812 240.18 252.566 240.398C252.32 240.617 252.017 240.795 251.657 240.932C251.302 241.068 250.88 241.137 250.393 241.137ZM261.012 234.766V241H259.747V233.604H260.978L261.012 234.766ZM263.322 233.562L263.315 234.738C263.211 234.715 263.11 234.702 263.015 234.697C262.924 234.688 262.819 234.684 262.7 234.684C262.409 234.684 262.151 234.729 261.928 234.82C261.704 234.911 261.515 235.039 261.36 235.203C261.205 235.367 261.082 235.563 260.991 235.791C260.905 236.014 260.848 236.26 260.82 236.529L260.465 236.734C260.465 236.288 260.508 235.868 260.595 235.477C260.686 235.085 260.825 234.738 261.012 234.438C261.199 234.132 261.436 233.895 261.723 233.727C262.014 233.553 262.361 233.467 262.762 233.467C262.853 233.467 262.958 233.478 263.076 233.501C263.195 233.519 263.277 233.54 263.322 233.562ZM270.865 233.604V241H269.594V233.604H270.865ZM269.498 231.642C269.498 231.437 269.56 231.263 269.683 231.122C269.81 230.981 269.997 230.91 270.243 230.91C270.485 230.91 270.669 230.981 270.797 231.122C270.929 231.263 270.995 231.437 270.995 231.642C270.995 231.838 270.929 232.006 270.797 232.147C270.669 232.284 270.485 232.353 270.243 232.353C269.997 232.353 269.81 232.284 269.683 232.147C269.56 232.006 269.498 231.838 269.498 231.642ZM280.965 241.137C280.45 241.137 279.983 241.05 279.563 240.877C279.149 240.699 278.791 240.451 278.49 240.132C278.194 239.813 277.966 239.435 277.807 238.997C277.647 238.56 277.567 238.081 277.567 237.562V237.274C277.567 236.673 277.656 236.137 277.834 235.668C278.012 235.194 278.253 234.793 278.559 234.465C278.864 234.137 279.21 233.888 279.598 233.72C279.985 233.551 280.386 233.467 280.801 233.467C281.329 233.467 281.785 233.558 282.168 233.74C282.555 233.923 282.872 234.178 283.118 234.506C283.364 234.829 283.547 235.212 283.665 235.654C283.784 236.092 283.843 236.57 283.843 237.09V237.657H278.319V236.625H282.578V236.529C282.56 236.201 282.492 235.882 282.373 235.572C282.259 235.262 282.077 235.007 281.826 234.807C281.576 234.606 281.234 234.506 280.801 234.506C280.514 234.506 280.249 234.567 280.008 234.69C279.766 234.809 279.559 234.987 279.386 235.224C279.213 235.461 279.078 235.75 278.982 236.092C278.887 236.434 278.839 236.828 278.839 237.274V237.562C278.839 237.912 278.887 238.243 278.982 238.553C279.083 238.858 279.226 239.127 279.413 239.359C279.604 239.592 279.835 239.774 280.104 239.906C280.377 240.038 280.687 240.104 281.033 240.104C281.48 240.104 281.858 240.013 282.168 239.831C282.478 239.649 282.749 239.405 282.981 239.1L283.747 239.708C283.588 239.95 283.385 240.18 283.139 240.398C282.893 240.617 282.59 240.795 282.229 240.932C281.874 241.068 281.452 241.137 280.965 241.137ZM294.626 239.038C294.626 238.856 294.585 238.687 294.503 238.532C294.425 238.373 294.264 238.229 294.018 238.102C293.776 237.969 293.411 237.855 292.924 237.76C292.514 237.673 292.142 237.571 291.81 237.452C291.481 237.334 291.201 237.19 290.969 237.021C290.741 236.853 290.565 236.655 290.442 236.427C290.319 236.199 290.258 235.932 290.258 235.627C290.258 235.335 290.322 235.06 290.449 234.8C290.581 234.54 290.766 234.31 291.003 234.109C291.244 233.909 291.534 233.752 291.871 233.638C292.208 233.524 292.584 233.467 292.999 233.467C293.591 233.467 294.097 233.572 294.517 233.781C294.936 233.991 295.257 234.271 295.48 234.622C295.704 234.968 295.815 235.354 295.815 235.777H294.551C294.551 235.572 294.489 235.374 294.366 235.183C294.248 234.987 294.072 234.825 293.84 234.697C293.612 234.57 293.332 234.506 292.999 234.506C292.648 234.506 292.363 234.561 292.145 234.67C291.93 234.775 291.773 234.909 291.673 235.073C291.577 235.237 291.529 235.41 291.529 235.593C291.529 235.729 291.552 235.853 291.598 235.962C291.648 236.067 291.734 236.165 291.857 236.256C291.98 236.342 292.154 236.424 292.377 236.502C292.6 236.579 292.885 236.657 293.231 236.734C293.838 236.871 294.337 237.035 294.729 237.227C295.12 237.418 295.412 237.653 295.604 237.931C295.795 238.209 295.891 238.546 295.891 238.942C295.891 239.266 295.822 239.562 295.686 239.831C295.553 240.1 295.36 240.332 295.104 240.528C294.854 240.72 294.553 240.87 294.202 240.979C293.856 241.084 293.466 241.137 293.033 241.137C292.382 241.137 291.83 241.021 291.379 240.788C290.928 240.556 290.586 240.255 290.354 239.886C290.121 239.517 290.005 239.127 290.005 238.717H291.276C291.295 239.063 291.395 239.339 291.577 239.544C291.759 239.744 291.983 239.888 292.247 239.975C292.511 240.057 292.773 240.098 293.033 240.098C293.38 240.098 293.669 240.052 293.901 239.961C294.138 239.87 294.318 239.744 294.441 239.585C294.564 239.425 294.626 239.243 294.626 239.038Z" fill="white" fill-opacity="0.92"/>
<path d="M98.1415 150.008C93.1464 150.003 88.3204 151.812 84.5641 155.097C80.8079 158.382 78.3781 162.919 77.7283 167.86C77.6107 168.745 77.5519 169.636 77.5525 170.529V179.816C77.3728 179.816 77.1702 179.816 77.0097 179.816C75.1623 179.816 73.3641 179.222 71.8811 178.123C70.3982 177.024 69.3093 175.478 68.7756 173.714C68.8073 173.695 68.8337 173.669 68.852 173.637C68.9132 173.531 68.852 173.206 68.852 173.081V147.96H57.2808V163.058C57.2808 165.751 57.2808 168.444 57.2808 171.139C57.2808 171.181 57.2808 171.223 57.2808 171.265C57.2808 171.307 57.2808 171.349 57.2808 171.395C57.2839 172.202 57.3375 173.008 57.4413 173.809C58.0608 178.552 60.3902 182.908 63.9942 186.063C67.5983 189.218 72.2303 190.956 77.025 190.952C77.2046 190.952 77.3881 190.952 77.5678 190.952V224.299H88.8753V191.089H98.1491C98.6079 191.089 99.0666 191.089 99.5215 191.043C104.851 190.688 109.833 188.28 113.417 184.328C117 180.376 118.904 175.189 118.725 169.863C118.547 164.537 116.301 159.489 112.462 155.784C108.623 152.079 103.491 150.008 98.1491 150.008H98.1415ZM98.1415 179.8H88.8753V170.548C88.8776 168.718 89.4239 166.929 90.4452 165.408C91.4666 163.887 92.917 162.702 94.6131 162.004C96.3093 161.306 98.1749 161.125 99.9742 161.484C101.773 161.843 103.425 162.727 104.721 164.023C106.017 165.319 106.899 166.969 107.255 168.765C107.61 170.561 107.424 172.422 106.72 174.112C106.016 175.803 104.825 177.247 103.298 178.262C101.771 179.277 99.9764 179.818 98.1415 179.816V179.8Z" fill="white"/>
<path d="M63.5039 145.973C64.9881 145.973 66.4389 145.534 67.6729 144.711C68.9069 143.888 69.8687 142.719 70.4367 141.351C71.0046 139.983 71.1532 138.478 70.8637 137.026C70.5742 135.574 69.8595 134.24 68.81 133.193C67.7606 132.146 66.4235 131.433 64.9679 131.144C63.5123 130.855 62.0035 131.003 60.6323 131.57C59.2611 132.136 58.0892 133.096 57.2646 134.327C56.4401 135.558 56 137.006 56 138.486C55.9995 139.47 56.1933 140.443 56.5702 141.352C56.9471 142.26 57.4998 143.086 58.1967 143.781C58.8936 144.476 59.7211 145.028 60.6317 145.404C61.5424 145.78 62.5184 145.973 63.5039 145.973Z" fill="white"/>
<path d="M127.133 204.346C127.133 200.509 127.014 197.267 126.88 194.506H135.206L135.65 198.774H135.852C137.095 196.791 140.237 193.816 145.409 193.816C151.716 193.816 156.46 198.011 156.46 207.076V225.306H146.827V208.236C146.827 204.269 145.409 201.554 141.946 201.554C139.308 201.554 137.741 203.396 137.079 205.169C136.829 205.933 136.715 206.735 136.743 207.538V225.306H127.133V204.346Z" fill="white"/>
<path d="M171.239 212.995C171.525 216.965 175.444 218.853 179.939 218.853C182.824 218.896 185.695 218.455 188.433 217.549L189.729 224.032C186.533 225.329 182.684 225.977 178.544 225.977C168.085 225.977 162.08 219.902 162.08 210.307C162.08 202.481 166.973 193.827 177.642 193.827C187.646 193.827 191.426 201.585 191.426 209.204C191.443 210.478 191.328 211.749 191.082 212.999L171.239 212.995ZM182.504 206.436C182.523 204.128 181.491 200.193 177.122 200.193C173.07 200.193 171.426 203.888 171.158 206.436H182.504Z" fill="white"/>
<path d="M220.058 224.535C218.33 225.333 215.112 225.966 211.461 225.966C201.484 225.966 195.134 219.864 195.134 210.203C195.134 201.199 201.308 193.839 212.784 193.839C215.277 193.835 217.753 194.251 220.108 195.071L218.613 202.183C217.466 201.668 215.769 201.203 213.242 201.203C208.166 201.203 204.913 204.796 204.951 209.834C204.951 215.489 208.774 218.491 213.399 218.491C215.29 218.524 217.169 218.183 218.927 217.488L220.058 224.535Z" fill="white"/>
<path d="M236.813 185.723V194.495H243.694V201.554H236.813V212.728C236.813 216.443 237.738 218.155 240.602 218.155C241.56 218.169 242.517 218.073 243.453 217.869L243.534 225.146C242.276 225.58 239.986 225.962 237.299 225.962C234.195 225.962 231.607 224.886 230.066 223.292C228.281 221.469 227.413 218.54 227.413 214.166V201.554H223.312V194.506H227.413V187.889L236.813 185.723Z" fill="white"/>
<path d="M266.558 225.306L265.992 222.255H265.785C263.775 224.707 260.625 226.008 256.97 226.008C250.686 226.008 246.993 221.504 246.993 216.584C246.993 208.575 254.187 204.761 265.109 204.761V204.38C265.109 202.74 264.226 200.402 259.455 200.414C256.475 200.453 253.554 201.239 250.957 202.698L249.18 196.596C251.332 195.368 255.537 193.835 261.179 193.835C271.455 193.835 274.708 199.895 274.708 207.126V217.865C274.708 220.802 274.864 223.586 275.197 225.325L266.558 225.306ZM265.411 210.741C260.361 210.715 256.458 211.927 256.458 215.596C256.458 218.075 258.083 219.284 260.281 219.284C261.376 219.285 262.444 218.945 263.335 218.31C264.226 217.676 264.896 216.778 265.25 215.745C265.384 215.21 265.445 214.66 265.43 214.109L265.411 210.741Z" fill="white"/>
<path d="M282.039 204.658C282.039 200.139 281.955 197.161 281.787 194.506H290.033L290.384 200.208H290.618C292.204 195.704 295.969 193.816 298.951 193.816C299.639 193.79 300.327 193.85 301 193.995V202.999C300.149 202.814 299.279 202.723 298.408 202.729C294.884 202.729 292.475 204.594 291.829 207.591C291.702 208.294 291.641 209.008 291.65 209.723V225.306H282.039V204.658Z" fill="white"/>
</svg>
