<svg width="245" height="95" viewBox="0 0 245 95" fill="none" xmlns="http://www.w3.org/2000/svg">
<g clip-path="url(#clip0_2_5617)">
<path d="M42.1414 19.0076C37.1463 19.0033 32.3202 20.8124 28.564 24.0973C24.8078 27.3823 22.378 31.9186 21.7282 36.8597C21.6106 37.7447 21.5518 38.6365 21.5524 39.5293V48.8157C21.3727 48.8157 21.1701 48.8157 21.0095 48.8157C19.1622 48.8157 17.364 48.2223 15.881 47.1233C14.398 46.0243 13.3091 44.4782 12.7755 42.7138C12.8072 42.6954 12.8335 42.6691 12.8519 42.6375C12.9131 42.5307 12.8519 42.2065 12.8519 42.0807V16.9597H1.28064V32.0582C1.28064 34.7507 1.28064 37.4445 1.28064 40.1395C1.28064 40.1815 1.28064 40.2234 1.28064 40.2654C1.28064 40.3073 1.28064 40.3493 1.28064 40.395C1.28374 41.2023 1.33736 42.0085 1.44119 42.8091C2.06072 47.5524 4.39011 51.9084 7.99412 55.0632C11.5981 58.218 16.2302 59.9558 21.0248 59.9518C21.2045 59.9518 21.388 59.9518 21.5677 59.9518V93.2991H32.8752V60.0891H42.149C42.6077 60.0891 43.0665 60.0891 43.5214 60.0434C48.8509 59.6878 53.8334 57.2799 57.4166 53.3279C60.9999 49.376 62.9034 44.1894 62.7253 38.8634C62.5472 33.5375 60.3013 28.489 56.462 24.7841C52.6227 21.0793 47.4905 19.008 42.149 19.0076H42.1414ZM42.1414 48.8005H32.8752V39.5484C32.8774 37.7177 33.4238 35.9289 34.4451 34.408C35.4664 32.8871 36.9169 31.7026 38.613 31.0041C40.3092 30.3056 42.1748 30.1246 43.9741 30.484C45.7733 30.8434 47.4253 31.7269 48.7212 33.023C50.0171 34.3191 50.8987 35.9694 51.2545 37.7653C51.6102 39.5612 51.4242 41.422 50.7199 43.1125C50.0156 44.8029 48.8247 46.247 47.2977 47.2622C45.7707 48.2774 43.9763 48.818 42.1414 48.8157V48.8005Z" fill="white"/>
<path d="M7.50394 14.9727C8.98808 14.9727 10.4389 14.5336 11.6729 13.711C12.9069 12.8884 13.8687 11.7192 14.4367 10.3513C15.0046 8.9833 15.1532 7.47805 14.8637 6.02584C14.5742 4.57363 13.8595 3.23969 12.81 2.1927C11.7606 1.14572 10.4235 0.432714 8.96789 0.143851C7.51226 -0.145011 6.00347 0.00324371 4.63231 0.569868C3.26114 1.13649 2.08919 2.09604 1.26464 3.32716C0.440099 4.55828 9.74768e-07 6.00569 9.74768e-07 7.48635C-0.000501484 8.46962 0.193251 9.44334 0.570181 10.3518C0.947111 11.2604 1.49983 12.0858 2.19673 12.7811C2.89364 13.4764 3.72107 14.0278 4.63171 14.4039C5.54236 14.7799 6.51837 14.9732 7.50394 14.9727Z" fill="white"/>
<path d="M71.1327 73.3456C71.1327 69.509 71.0142 66.2673 70.8804 63.5062H79.2062L79.6496 67.7738H79.8522C81.0946 65.7906 84.2368 62.8159 89.4089 62.8159C95.7164 62.8159 100.46 67.011 100.46 76.0763V94.3059H90.8272V77.2356C90.8272 73.2693 89.4089 70.554 85.9456 70.554C83.3079 70.554 81.7406 72.396 81.0793 74.1694C80.8291 74.9331 80.7153 75.7347 80.7429 76.5377V94.3059H71.1327V73.3456Z" fill="white"/>
<path d="M115.239 81.9952C115.525 85.9653 119.444 87.8531 123.939 87.8531C126.824 87.8964 129.695 87.4555 132.433 86.5488L133.729 93.0321C130.533 94.3288 126.684 94.9771 122.544 94.9771C112.085 94.9771 106.08 88.9019 106.08 79.3065C106.08 71.4807 110.973 62.8274 121.642 62.8274C131.646 62.8274 135.426 70.5845 135.426 78.2043C135.443 79.4777 135.328 80.7493 135.082 81.999L115.239 81.9952ZM126.504 75.4356C126.523 73.1283 125.491 69.1925 121.122 69.1925C117.07 69.1925 115.426 72.888 115.158 75.4356H126.504Z" fill="white"/>
<path d="M164.058 93.5355C162.33 94.3326 159.112 94.9657 155.461 94.9657C145.484 94.9657 139.134 88.8637 139.134 79.2035C139.134 70.1993 145.308 62.8388 156.784 62.8388C159.277 62.835 161.754 63.2515 164.108 64.0707L162.613 71.1833C161.467 70.6684 159.769 70.2031 157.242 70.2031C152.166 70.2031 148.913 73.7957 148.951 78.8336C148.951 84.4894 152.774 87.4908 157.399 87.4908C159.29 87.5245 161.169 87.1836 162.927 86.4878L164.058 93.5355Z" fill="white"/>
<path d="M180.813 54.7232V63.4948H187.694V70.554H180.813V81.7282C180.813 85.4428 181.738 87.1552 184.602 87.1552C185.56 87.1687 186.517 87.0727 187.453 86.8691L187.534 94.1457C186.276 94.5805 183.986 94.9619 181.299 94.9619C178.195 94.9619 175.607 93.8864 174.066 92.2923C172.281 90.4693 171.413 87.5403 171.413 83.166V70.554H167.312V63.5062H171.413V56.8894L180.813 54.7232Z" fill="white"/>
<path d="M210.558 94.3059L209.992 91.2549H209.785C207.775 93.7072 204.625 95.0076 200.97 95.0076C194.686 95.0076 190.993 90.5036 190.993 85.5839C190.993 77.5751 198.187 73.7614 209.109 73.7614V73.38C209.109 71.7401 208.226 69.4023 203.455 69.4137C200.475 69.4535 197.553 70.239 194.957 71.6981L193.18 65.5962C195.332 64.3681 199.537 62.835 205.179 62.835C215.454 62.835 218.708 68.895 218.708 76.1259V86.8653C218.708 89.8019 218.864 92.5859 219.197 94.325L210.558 94.3059ZM209.411 79.7413C204.361 79.7146 200.458 80.9274 200.458 84.5962C200.458 87.0751 202.083 88.284 204.281 88.284C205.376 88.2855 206.444 87.945 207.335 87.3103C208.226 86.6756 208.896 85.7785 209.25 84.7449C209.384 84.2102 209.445 83.6598 209.43 83.1088L209.411 79.7413Z" fill="white"/>
<path d="M226.04 73.6584C226.04 69.1391 225.955 66.1606 225.787 63.5062H234.033L234.384 69.2078H234.618C236.204 64.7037 239.969 62.8159 242.951 62.8159C243.639 62.7899 244.327 62.8502 245 62.9952V71.9994C244.149 71.8139 243.28 71.7231 242.408 71.7286C238.884 71.7286 236.475 73.5935 235.829 76.5911C235.702 77.2944 235.642 78.0083 235.65 78.723V94.3059H226.04V73.6584Z" fill="white"/>
</g>
<defs>
<clipPath id="clip0_2_5617">
<rect width="245" height="95" fill="white"/>
</clipPath>
</defs>
</svg>
