<svg width="49" height="73" viewBox="0 0 49 73" fill="none" xmlns="http://www.w3.org/2000/svg">
<path d="M32.6561 14.7293C28.7853 14.726 25.0456 16.1279 22.1348 18.6735C19.224 21.219 17.3411 24.7343 16.8376 28.5632C16.7464 29.249 16.7009 29.9401 16.7013 30.6319V37.8282C16.5621 37.8282 16.4051 37.8282 16.2807 37.8282C14.8492 37.8281 13.4557 37.3683 12.3065 36.5166C11.1573 35.665 10.3135 34.4669 9.89997 33.0996C9.92455 33.0854 9.94497 33.0651 9.95922 33.0405C10.0066 32.9578 9.95922 32.7066 9.95922 32.6091V13.1423H0.992432V24.8425C0.992432 26.9289 0.992432 29.0164 0.992432 31.1048C0.992432 31.1373 0.992432 31.1698 0.992432 31.2023C0.992432 31.2348 0.992432 31.2673 0.992432 31.3028C0.994836 31.9284 1.03639 32.5531 1.11685 33.1735C1.59693 36.8492 3.40202 40.2247 6.19483 42.6694C8.98764 45.1142 12.5771 46.4608 16.2925 46.4577C16.4318 46.4577 16.574 46.4577 16.7132 46.4577V72.2991H25.4756V46.5641H32.662C33.0175 46.5641 33.373 46.5641 33.7255 46.5286C37.8555 46.2531 41.7164 44.3872 44.4932 41.3247C47.2699 38.2623 48.745 34.2431 48.607 30.1159C48.4689 25.9888 46.7286 22.0766 43.7534 19.2057C40.7783 16.3347 36.8012 14.7296 32.662 14.7293H32.6561ZM32.6561 37.8163H25.4756V30.6467C25.4773 29.2281 25.9007 27.8419 26.6922 26.6634C27.4836 25.4848 28.6076 24.5669 29.9219 24.0256C31.2363 23.4844 32.682 23.3441 34.0763 23.6226C35.4706 23.9011 36.7508 24.5858 37.755 25.5901C38.7592 26.5944 39.4423 27.8733 39.718 29.265C39.9937 30.6567 39.8495 32.0987 39.3038 33.4086C38.758 34.7186 37.8351 35.8376 36.6518 36.6243C35.4686 37.411 34.0781 37.8299 32.6561 37.8282V37.8163Z" fill="#EB5E28"/>
<path d="M5.81493 11.6026C6.96502 11.6026 8.08928 11.2624 9.04554 10.6249C10.0018 9.98746 10.7471 9.08142 11.1872 8.02137C11.6274 6.96132 11.7425 5.79487 11.5181 4.66953C11.2938 3.54419 10.7399 2.51049 9.92671 1.69916C9.11348 0.887838 8.07736 0.335318 6.94937 0.111473C5.82138 -0.112372 4.6522 0.00251361 3.58966 0.441601C2.52712 0.880687 1.61895 1.62426 0.979994 2.57827C0.341041 3.53229 7.55365e-07 4.65392 7.55365e-07 5.80131C-0.000388609 6.56325 0.149753 7.31781 0.441843 8.02183C0.733933 8.72585 1.16224 9.36554 1.70229 9.90431C2.24233 10.4431 2.88352 10.8704 3.58919 11.1618C4.29487 11.4532 5.0512 11.603 5.81493 11.6026Z" fill="#EB5E28"/>
</svg>
