<svg width="49" height="73" viewBox="0 0 49 73" fill="none" xmlns="http://www.w3.org/2000/svg">
<path d="M32.6561 14.7293C28.7853 14.726 25.0455 16.1279 22.1347 18.6735C19.2239 21.219 17.3411 24.7343 16.8375 28.5632C16.7464 29.249 16.7009 29.9401 16.7013 30.6319V37.8282C16.5621 37.8282 16.4051 37.8282 16.2806 37.8282C14.8491 37.8281 13.4556 37.3683 12.3065 36.5166C11.1573 35.665 10.3135 34.4669 9.89991 33.0996C9.92449 33.0854 9.94491 33.0651 9.95916 33.0405C10.0066 32.9578 9.95916 32.7066 9.95916 32.6091V13.1423H0.992371V24.8425C0.992371 26.9289 0.992371 29.0164 0.992371 31.1048C0.992371 31.1373 0.992371 31.1698 0.992371 31.2023C0.992371 31.2348 0.992371 31.2673 0.992371 31.3028C0.994775 31.9284 1.03633 32.5531 1.11679 33.1735C1.59687 36.8492 3.40195 40.2247 6.19477 42.6694C8.98758 45.1142 12.577 46.4608 16.2925 46.4577C16.4317 46.4577 16.5739 46.4577 16.7131 46.4577V72.2991H25.4755V46.5641H32.662C33.0175 46.5641 33.3729 46.5641 33.7254 46.5286C37.8554 46.2531 41.7164 44.3872 44.4931 41.3247C47.2698 38.2623 48.7449 34.2431 48.6069 30.1159C48.4689 25.9888 46.7285 22.0766 43.7534 19.2057C40.7782 16.3347 36.8012 14.7296 32.662 14.7293H32.6561ZM32.6561 37.8163H25.4755V30.6467C25.4773 29.2281 25.9007 27.8419 26.6921 26.6634C27.4835 25.4848 28.6075 24.5669 29.9219 24.0256C31.2362 23.4844 32.682 23.3441 34.0762 23.6226C35.4705 23.9011 36.7507 24.5858 37.7549 25.5901C38.7591 26.5944 39.4423 27.8733 39.7179 29.265C39.9936 30.6567 39.8495 32.0987 39.3037 33.4086C38.7579 34.7186 37.8351 35.8376 36.6518 36.6243C35.4685 37.411 34.078 37.8299 32.6561 37.8282V37.8163Z" fill="white"/>
<path d="M5.81493 11.6026C6.96502 11.6026 8.08928 11.2624 9.04554 10.6249C10.0018 9.98746 10.7471 9.08142 11.1872 8.02137C11.6274 6.96132 11.7425 5.79487 11.5181 4.66953C11.2938 3.54419 10.7399 2.51049 9.92671 1.69916C9.11348 0.887838 8.07736 0.335318 6.94937 0.111473C5.82138 -0.112372 4.6522 0.00251361 3.58966 0.441601C2.52712 0.880687 1.61895 1.62426 0.979994 2.57827C0.341041 3.53229 7.55365e-07 4.65392 7.55365e-07 5.80131C-0.000388609 6.56325 0.149753 7.31781 0.441843 8.02183C0.733933 8.72585 1.16224 9.36554 1.70229 9.90431C2.24233 10.4431 2.88352 10.8704 3.58919 11.1618C4.29487 11.4532 5.0512 11.603 5.81493 11.6026Z" fill="white"/>
</svg>
