<svg width="173" height="14" viewBox="0 0 173 14" fill="none" xmlns="http://www.w3.org/2000/svg">
<path d="M0.0410156 7.38379V7.22656C0.0410156 6.69336 0.11849 6.19889 0.273438 5.74316C0.428385 5.28288 0.651693 4.88411 0.943359 4.54688C1.23503 4.20508 1.58822 3.94076 2.00293 3.75391C2.41764 3.5625 2.88249 3.4668 3.39746 3.4668C3.91699 3.4668 4.38411 3.5625 4.79883 3.75391C5.2181 3.94076 5.57357 4.20508 5.86523 4.54688C6.16146 4.88411 6.38704 5.28288 6.54199 5.74316C6.69694 6.19889 6.77441 6.69336 6.77441 7.22656V7.38379C6.77441 7.91699 6.69694 8.41146 6.54199 8.86719C6.38704 9.32292 6.16146 9.72168 5.86523 10.0635C5.57357 10.4007 5.22038 10.665 4.80566 10.8564C4.39551 11.0433 3.93066 11.1367 3.41113 11.1367C2.8916 11.1367 2.42448 11.0433 2.00977 10.8564C1.59505 10.665 1.23958 10.4007 0.943359 10.0635C0.651693 9.72168 0.428385 9.32292 0.273438 8.86719C0.11849 8.41146 0.0410156 7.91699 0.0410156 7.38379ZM1.30566 7.22656V7.38379C1.30566 7.75293 1.34896 8.10156 1.43555 8.42969C1.52214 8.75326 1.65202 9.04036 1.8252 9.29102C2.00293 9.54167 2.22396 9.73991 2.48828 9.88574C2.7526 10.027 3.06022 10.0977 3.41113 10.0977C3.75749 10.0977 4.06055 10.027 4.32031 9.88574C4.58464 9.73991 4.80339 9.54167 4.97656 9.29102C5.14974 9.04036 5.27962 8.75326 5.36621 8.42969C5.45736 8.10156 5.50293 7.75293 5.50293 7.38379V7.22656C5.50293 6.86198 5.45736 6.5179 5.36621 6.19434C5.27962 5.86621 5.14746 5.57682 4.96973 5.32617C4.79655 5.07096 4.5778 4.87044 4.31348 4.72461C4.05371 4.57878 3.74837 4.50586 3.39746 4.50586C3.05111 4.50586 2.74577 4.57878 2.48145 4.72461C2.22168 4.87044 2.00293 5.07096 1.8252 5.32617C1.65202 5.57682 1.52214 5.86621 1.43555 6.19434C1.34896 6.5179 1.30566 6.86198 1.30566 7.22656ZM14.625 5.18262V11H13.3604V3.60352H14.5566L14.625 5.18262ZM14.3242 7.02148L13.7979 7.00098C13.8024 6.49512 13.8776 6.02799 14.0234 5.59961C14.1693 5.16667 14.3743 4.79069 14.6387 4.47168C14.903 4.15267 15.2174 3.90658 15.582 3.7334C15.9512 3.55566 16.359 3.4668 16.8057 3.4668C17.1702 3.4668 17.4984 3.51693 17.79 3.61719C18.0817 3.71289 18.3301 3.86784 18.5352 4.08203C18.7448 4.29622 18.9043 4.57422 19.0137 4.91602C19.123 5.25326 19.1777 5.66569 19.1777 6.15332V11H17.9062V6.13965C17.9062 5.75228 17.8493 5.44238 17.7354 5.20996C17.6214 4.97298 17.4551 4.80208 17.2363 4.69727C17.0176 4.58789 16.7487 4.5332 16.4297 4.5332C16.1152 4.5332 15.8281 4.59928 15.5684 4.73145C15.3132 4.86361 15.0921 5.0459 14.9053 5.27832C14.723 5.51074 14.5794 5.77734 14.4746 6.07812C14.3743 6.37435 14.3242 6.6888 14.3242 7.02148ZM27.4727 0.5V11H26.2012V0.5H27.4727ZM35.877 3.60352V11H34.6055V3.60352H35.877ZM34.5098 1.6416C34.5098 1.43652 34.5713 1.26335 34.6943 1.12207C34.8219 0.980794 35.0088 0.910156 35.2549 0.910156C35.4964 0.910156 35.681 0.980794 35.8086 1.12207C35.9408 1.26335 36.0068 1.43652 36.0068 1.6416C36.0068 1.83757 35.9408 2.00618 35.8086 2.14746C35.681 2.28418 35.4964 2.35254 35.2549 2.35254C35.0088 2.35254 34.8219 2.28418 34.6943 2.14746C34.5713 2.00618 34.5098 1.83757 34.5098 1.6416ZM44.1719 5.18262V11H42.9072V3.60352H44.1035L44.1719 5.18262ZM43.8711 7.02148L43.3447 7.00098C43.3493 6.49512 43.4245 6.02799 43.5703 5.59961C43.7161 5.16667 43.9212 4.79069 44.1855 4.47168C44.4499 4.15267 44.7643 3.90658 45.1289 3.7334C45.498 3.55566 45.9059 3.4668 46.3525 3.4668C46.7171 3.4668 47.0452 3.51693 47.3369 3.61719C47.6286 3.71289 47.877 3.86784 48.082 4.08203C48.2917 4.29622 48.4512 4.57422 48.5605 4.91602C48.6699 5.25326 48.7246 5.66569 48.7246 6.15332V11H47.4531V6.13965C47.4531 5.75228 47.3962 5.44238 47.2822 5.20996C47.1683 4.97298 47.002 4.80208 46.7832 4.69727C46.5645 4.58789 46.2956 4.5332 45.9766 4.5332C45.6621 4.5332 45.375 4.59928 45.1152 4.73145C44.86 4.86361 44.639 5.0459 44.4521 5.27832C44.2699 5.51074 44.1263 5.77734 44.0215 6.07812C43.9212 6.37435 43.8711 6.6888 43.8711 7.02148ZM58.7148 11.1367C58.1999 11.1367 57.7327 11.0501 57.3135 10.877C56.8988 10.6992 56.541 10.4508 56.2402 10.1318C55.944 9.81283 55.7161 9.43457 55.5566 8.99707C55.3971 8.55957 55.3174 8.08105 55.3174 7.56152V7.27441C55.3174 6.67285 55.4062 6.13737 55.584 5.66797C55.7617 5.19401 56.0033 4.79297 56.3086 4.46484C56.6139 4.13672 56.9603 3.88835 57.3477 3.71973C57.735 3.55111 58.1361 3.4668 58.5508 3.4668C59.0794 3.4668 59.5352 3.55794 59.918 3.74023C60.3053 3.92253 60.6221 4.17773 60.8682 4.50586C61.1143 4.82943 61.2965 5.21224 61.415 5.6543C61.5335 6.0918 61.5928 6.57031 61.5928 7.08984V7.65723H56.0693V6.625H60.3281V6.5293C60.3099 6.20117 60.2415 5.88216 60.123 5.57227C60.0091 5.26237 59.8268 5.00716 59.5762 4.80664C59.3255 4.60612 58.9837 4.50586 58.5508 4.50586C58.2637 4.50586 57.9993 4.56738 57.7578 4.69043C57.5163 4.80892 57.3089 4.98665 57.1357 5.22363C56.9626 5.46061 56.8281 5.75 56.7324 6.0918C56.6367 6.43359 56.5889 6.8278 56.5889 7.27441V7.56152C56.5889 7.91243 56.6367 8.24284 56.7324 8.55273C56.8327 8.85807 56.9762 9.12695 57.1631 9.35938C57.3545 9.5918 57.5846 9.77409 57.8535 9.90625C58.127 10.0384 58.4368 10.1045 58.7832 10.1045C59.2298 10.1045 59.6081 10.0133 59.918 9.83105C60.2279 9.64876 60.499 9.40495 60.7314 9.09961L61.4971 9.70801C61.3376 9.94954 61.1348 10.1797 60.8887 10.3984C60.6426 10.6172 60.3395 10.7949 59.9795 10.9316C59.624 11.0684 59.2025 11.1367 58.7148 11.1367ZM81.334 3.60352H82.4824V10.8428C82.4824 11.4945 82.3503 12.0505 82.0859 12.5107C81.8216 12.971 81.4525 13.3197 80.9785 13.5566C80.5091 13.7982 79.9668 13.9189 79.3516 13.9189C79.0964 13.9189 78.7956 13.8779 78.4492 13.7959C78.1074 13.7184 77.7702 13.584 77.4375 13.3926C77.1094 13.2057 76.8337 12.9528 76.6104 12.6338L77.2734 11.8818C77.5833 12.2555 77.9069 12.5153 78.2441 12.6611C78.5859 12.807 78.9232 12.8799 79.2559 12.8799C79.6569 12.8799 80.0033 12.8047 80.2949 12.6543C80.5866 12.5039 80.8122 12.2806 80.9717 11.9844C81.1357 11.6927 81.2178 11.3327 81.2178 10.9043V5.23047L81.334 3.60352ZM76.2412 7.38379V7.24023C76.2412 6.67513 76.3073 6.16243 76.4395 5.70215C76.5762 5.2373 76.7699 4.83854 77.0205 4.50586C77.2757 4.17318 77.5833 3.91797 77.9434 3.74023C78.3034 3.55794 78.709 3.4668 79.1602 3.4668C79.625 3.4668 80.0306 3.54883 80.377 3.71289C80.7279 3.8724 81.0241 4.1071 81.2656 4.41699C81.5117 4.72233 81.7054 5.09147 81.8467 5.52441C81.988 5.95736 82.0859 6.44727 82.1406 6.99414V7.62305C82.0905 8.16536 81.9925 8.65299 81.8467 9.08594C81.7054 9.51888 81.5117 9.88802 81.2656 10.1934C81.0241 10.4987 80.7279 10.7334 80.377 10.8975C80.026 11.057 79.6159 11.1367 79.1465 11.1367C78.7044 11.1367 78.3034 11.0433 77.9434 10.8564C77.5879 10.6696 77.2826 10.4076 77.0273 10.0703C76.7721 9.73307 76.5762 9.33659 76.4395 8.88086C76.3073 8.42057 76.2412 7.92155 76.2412 7.38379ZM77.5059 7.24023V7.38379C77.5059 7.75293 77.5423 8.09928 77.6152 8.42285C77.6927 8.74642 77.8089 9.03125 77.9639 9.27734C78.1234 9.52344 78.3262 9.71712 78.5723 9.8584C78.8184 9.99512 79.1123 10.0635 79.4541 10.0635C79.8734 10.0635 80.2197 9.97461 80.4932 9.79688C80.7666 9.61914 80.9831 9.38444 81.1426 9.09277C81.3066 8.80111 81.4342 8.48438 81.5254 8.14258V6.49512C81.4753 6.24447 81.3978 6.00293 81.293 5.77051C81.1927 5.53353 81.0605 5.32389 80.8965 5.1416C80.737 4.95475 80.5387 4.80664 80.3018 4.69727C80.0648 4.58789 79.7868 4.5332 79.4678 4.5332C79.1214 4.5332 78.8229 4.60612 78.5723 4.75195C78.3262 4.89323 78.1234 5.08919 77.9639 5.33984C77.8089 5.58594 77.6927 5.87305 77.6152 6.20117C77.5423 6.52474 77.5059 6.87109 77.5059 7.24023ZM90.668 4.76562V11H89.4033V3.60352H90.6338L90.668 4.76562ZM92.9785 3.5625L92.9717 4.73828C92.8669 4.71549 92.7666 4.70182 92.6709 4.69727C92.5798 4.68815 92.4749 4.68359 92.3564 4.68359C92.0648 4.68359 91.8073 4.72917 91.584 4.82031C91.3607 4.91146 91.1715 5.03906 91.0166 5.20312C90.8617 5.36719 90.7386 5.56315 90.6475 5.79102C90.5609 6.01432 90.5039 6.26042 90.4766 6.5293L90.1211 6.73438C90.1211 6.28776 90.1644 5.86849 90.251 5.47656C90.3421 5.08464 90.4811 4.73828 90.668 4.4375C90.8548 4.13216 91.0918 3.89518 91.3789 3.72656C91.6706 3.55339 92.0169 3.4668 92.418 3.4668C92.5091 3.4668 92.6139 3.47819 92.7324 3.50098C92.8509 3.51921 92.9329 3.53971 92.9785 3.5625ZM98.6758 7.38379V7.22656C98.6758 6.69336 98.7533 6.19889 98.9082 5.74316C99.0632 5.28288 99.2865 4.88411 99.5781 4.54688C99.8698 4.20508 100.223 3.94076 100.638 3.75391C101.052 3.5625 101.517 3.4668 102.032 3.4668C102.552 3.4668 103.019 3.5625 103.434 3.75391C103.853 3.94076 104.208 4.20508 104.5 4.54688C104.796 4.88411 105.022 5.28288 105.177 5.74316C105.332 6.19889 105.409 6.69336 105.409 7.22656V7.38379C105.409 7.91699 105.332 8.41146 105.177 8.86719C105.022 9.32292 104.796 9.72168 104.5 10.0635C104.208 10.4007 103.855 10.665 103.44 10.8564C103.03 11.0433 102.565 11.1367 102.046 11.1367C101.526 11.1367 101.059 11.0433 100.645 10.8564C100.23 10.665 99.8743 10.4007 99.5781 10.0635C99.2865 9.72168 99.0632 9.32292 98.9082 8.86719C98.7533 8.41146 98.6758 7.91699 98.6758 7.38379ZM99.9404 7.22656V7.38379C99.9404 7.75293 99.9837 8.10156 100.07 8.42969C100.157 8.75326 100.287 9.04036 100.46 9.29102C100.638 9.54167 100.859 9.73991 101.123 9.88574C101.387 10.027 101.695 10.0977 102.046 10.0977C102.392 10.0977 102.695 10.027 102.955 9.88574C103.219 9.73991 103.438 9.54167 103.611 9.29102C103.785 9.04036 103.914 8.75326 104.001 8.42969C104.092 8.10156 104.138 7.75293 104.138 7.38379V7.22656C104.138 6.86198 104.092 6.5179 104.001 6.19434C103.914 5.86621 103.782 5.57682 103.604 5.32617C103.431 5.07096 103.213 4.87044 102.948 4.72461C102.688 4.57878 102.383 4.50586 102.032 4.50586C101.686 4.50586 101.381 4.57878 101.116 4.72461C100.856 4.87044 100.638 5.07096 100.46 5.32617C100.287 5.57682 100.157 5.86621 100.07 6.19434C99.9837 6.5179 99.9404 6.86198 99.9404 7.22656ZM114.955 10.0977C115.256 10.0977 115.534 10.0361 115.789 9.91309C116.044 9.79004 116.254 9.62142 116.418 9.40723C116.582 9.18848 116.675 8.9401 116.698 8.66211H117.901C117.879 9.09961 117.73 9.50749 117.457 9.88574C117.188 10.2594 116.835 10.5625 116.397 10.7949C115.96 11.0228 115.479 11.1367 114.955 11.1367C114.399 11.1367 113.914 11.0387 113.499 10.8428C113.089 10.6468 112.747 10.3779 112.474 10.0361C112.205 9.69434 112.002 9.30241 111.865 8.86035C111.733 8.41374 111.667 7.94206 111.667 7.44531V7.1582C111.667 6.66146 111.733 6.19206 111.865 5.75C112.002 5.30339 112.205 4.90918 112.474 4.56738C112.747 4.22559 113.089 3.95671 113.499 3.76074C113.914 3.56478 114.399 3.4668 114.955 3.4668C115.534 3.4668 116.04 3.58529 116.473 3.82227C116.906 4.05469 117.245 4.3737 117.491 4.7793C117.742 5.18034 117.879 5.63607 117.901 6.14648H116.698C116.675 5.84115 116.589 5.56543 116.438 5.31934C116.293 5.07324 116.092 4.87728 115.837 4.73145C115.586 4.58105 115.292 4.50586 114.955 4.50586C114.568 4.50586 114.242 4.58333 113.978 4.73828C113.718 4.88867 113.51 5.09375 113.355 5.35352C113.205 5.60872 113.096 5.89355 113.027 6.20801C112.964 6.5179 112.932 6.83464 112.932 7.1582V7.44531C112.932 7.76888 112.964 8.08789 113.027 8.40234C113.091 8.7168 113.198 9.00163 113.349 9.25684C113.504 9.51204 113.711 9.71712 113.971 9.87207C114.235 10.0225 114.563 10.0977 114.955 10.0977ZM127.393 11.1367C126.878 11.1367 126.41 11.0501 125.991 10.877C125.576 10.6992 125.219 10.4508 124.918 10.1318C124.622 9.81283 124.394 9.43457 124.234 8.99707C124.075 8.55957 123.995 8.08105 123.995 7.56152V7.27441C123.995 6.67285 124.084 6.13737 124.262 5.66797C124.439 5.19401 124.681 4.79297 124.986 4.46484C125.292 4.13672 125.638 3.88835 126.025 3.71973C126.413 3.55111 126.814 3.4668 127.229 3.4668C127.757 3.4668 128.213 3.55794 128.596 3.74023C128.983 3.92253 129.3 4.17773 129.546 4.50586C129.792 4.82943 129.974 5.21224 130.093 5.6543C130.211 6.0918 130.271 6.57031 130.271 7.08984V7.65723H124.747V6.625H129.006V6.5293C128.988 6.20117 128.919 5.88216 128.801 5.57227C128.687 5.26237 128.505 5.00716 128.254 4.80664C128.003 4.60612 127.661 4.50586 127.229 4.50586C126.941 4.50586 126.677 4.56738 126.436 4.69043C126.194 4.80892 125.987 4.98665 125.813 5.22363C125.64 5.46061 125.506 5.75 125.41 6.0918C125.314 6.43359 125.267 6.8278 125.267 7.27441V7.56152C125.267 7.91243 125.314 8.24284 125.41 8.55273C125.51 8.85807 125.654 9.12695 125.841 9.35938C126.032 9.5918 126.262 9.77409 126.531 9.90625C126.805 10.0384 127.115 10.1045 127.461 10.1045C127.908 10.1045 128.286 10.0133 128.596 9.83105C128.906 9.64876 129.177 9.40495 129.409 9.09961L130.175 9.70801C130.015 9.94954 129.812 10.1797 129.566 10.3984C129.32 10.6172 129.017 10.7949 128.657 10.9316C128.302 11.0684 127.88 11.1367 127.393 11.1367ZM138.012 4.76562V11H136.747V3.60352H137.978L138.012 4.76562ZM140.322 3.5625L140.315 4.73828C140.211 4.71549 140.11 4.70182 140.015 4.69727C139.924 4.68815 139.819 4.68359 139.7 4.68359C139.409 4.68359 139.151 4.72917 138.928 4.82031C138.704 4.91146 138.515 5.03906 138.36 5.20312C138.205 5.36719 138.082 5.56315 137.991 5.79102C137.905 6.01432 137.848 6.26042 137.82 6.5293L137.465 6.73438C137.465 6.28776 137.508 5.86849 137.595 5.47656C137.686 5.08464 137.825 4.73828 138.012 4.4375C138.199 4.13216 138.436 3.89518 138.723 3.72656C139.014 3.55339 139.361 3.4668 139.762 3.4668C139.853 3.4668 139.958 3.47819 140.076 3.50098C140.195 3.51921 140.277 3.53971 140.322 3.5625ZM147.865 3.60352V11H146.594V3.60352H147.865ZM146.498 1.6416C146.498 1.43652 146.56 1.26335 146.683 1.12207C146.81 0.980794 146.997 0.910156 147.243 0.910156C147.485 0.910156 147.669 0.980794 147.797 1.12207C147.929 1.26335 147.995 1.43652 147.995 1.6416C147.995 1.83757 147.929 2.00618 147.797 2.14746C147.669 2.28418 147.485 2.35254 147.243 2.35254C146.997 2.35254 146.81 2.28418 146.683 2.14746C146.56 2.00618 146.498 1.83757 146.498 1.6416ZM157.965 11.1367C157.45 11.1367 156.983 11.0501 156.563 10.877C156.149 10.6992 155.791 10.4508 155.49 10.1318C155.194 9.81283 154.966 9.43457 154.807 8.99707C154.647 8.55957 154.567 8.08105 154.567 7.56152V7.27441C154.567 6.67285 154.656 6.13737 154.834 5.66797C155.012 5.19401 155.253 4.79297 155.559 4.46484C155.864 4.13672 156.21 3.88835 156.598 3.71973C156.985 3.55111 157.386 3.4668 157.801 3.4668C158.329 3.4668 158.785 3.55794 159.168 3.74023C159.555 3.92253 159.872 4.17773 160.118 4.50586C160.364 4.82943 160.547 5.21224 160.665 5.6543C160.784 6.0918 160.843 6.57031 160.843 7.08984V7.65723H155.319V6.625H159.578V6.5293C159.56 6.20117 159.492 5.88216 159.373 5.57227C159.259 5.26237 159.077 5.00716 158.826 4.80664C158.576 4.60612 158.234 4.50586 157.801 4.50586C157.514 4.50586 157.249 4.56738 157.008 4.69043C156.766 4.80892 156.559 4.98665 156.386 5.22363C156.213 5.46061 156.078 5.75 155.982 6.0918C155.887 6.43359 155.839 6.8278 155.839 7.27441V7.56152C155.839 7.91243 155.887 8.24284 155.982 8.55273C156.083 8.85807 156.226 9.12695 156.413 9.35938C156.604 9.5918 156.835 9.77409 157.104 9.90625C157.377 10.0384 157.687 10.1045 158.033 10.1045C158.48 10.1045 158.858 10.0133 159.168 9.83105C159.478 9.64876 159.749 9.40495 159.981 9.09961L160.747 9.70801C160.588 9.94954 160.385 10.1797 160.139 10.3984C159.893 10.6172 159.59 10.7949 159.229 10.9316C158.874 11.0684 158.452 11.1367 157.965 11.1367ZM171.626 9.03809C171.626 8.85579 171.585 8.68717 171.503 8.53223C171.425 8.37272 171.264 8.22917 171.018 8.10156C170.776 7.9694 170.411 7.85547 169.924 7.75977C169.514 7.67318 169.142 7.57064 168.81 7.45215C168.481 7.33366 168.201 7.1901 167.969 7.02148C167.741 6.85286 167.565 6.65462 167.442 6.42676C167.319 6.19889 167.258 5.93229 167.258 5.62695C167.258 5.33529 167.322 5.05957 167.449 4.7998C167.581 4.54004 167.766 4.3099 168.003 4.10938C168.244 3.90885 168.534 3.75163 168.871 3.6377C169.208 3.52376 169.584 3.4668 169.999 3.4668C170.591 3.4668 171.097 3.57161 171.517 3.78125C171.936 3.99089 172.257 4.27116 172.48 4.62207C172.704 4.96842 172.815 5.35352 172.815 5.77734H171.551C171.551 5.57227 171.489 5.37402 171.366 5.18262C171.248 4.98665 171.072 4.82487 170.84 4.69727C170.612 4.56966 170.332 4.50586 169.999 4.50586C169.648 4.50586 169.363 4.56055 169.145 4.66992C168.93 4.77474 168.773 4.90918 168.673 5.07324C168.577 5.2373 168.529 5.41048 168.529 5.59277C168.529 5.72949 168.552 5.85254 168.598 5.96191C168.648 6.06673 168.734 6.16471 168.857 6.25586C168.98 6.34245 169.154 6.42448 169.377 6.50195C169.6 6.57943 169.885 6.6569 170.231 6.73438C170.838 6.87109 171.337 7.03516 171.729 7.22656C172.12 7.41797 172.412 7.65267 172.604 7.93066C172.795 8.20866 172.891 8.5459 172.891 8.94238C172.891 9.26595 172.822 9.56217 172.686 9.83105C172.553 10.0999 172.36 10.3324 172.104 10.5283C171.854 10.7197 171.553 10.8701 171.202 10.9795C170.856 11.0843 170.466 11.1367 170.033 11.1367C169.382 11.1367 168.83 11.0205 168.379 10.7881C167.928 10.5557 167.586 10.2549 167.354 9.88574C167.121 9.5166 167.005 9.12695 167.005 8.7168H168.276C168.295 9.06315 168.395 9.33887 168.577 9.54395C168.759 9.74447 168.983 9.88802 169.247 9.97461C169.511 10.0566 169.773 10.0977 170.033 10.0977C170.38 10.0977 170.669 10.0521 170.901 9.96094C171.138 9.86979 171.318 9.74447 171.441 9.58496C171.564 9.42546 171.626 9.24316 171.626 9.03809Z" fill="white" fill-opacity="0.92"/>
</svg>
